# xmcd
#
# Track frame offsets:
#	150
#	17693
#	35604
#	51791
#	72310
#	87978
#	102431
#	122302
#	140435
#	156716
#	177529
#	198338
#
# Disc length: 2834 seconds
#
# Revision: 1
# Processed by: cddbd v1.5.2PL0 Copyright (c) Steve Scherf et al.
# Submitted via: audiograbber 1.83.01
#
DISCID=a90b100c
DTITLE=Chris Cagle - Back in the Saddle
DYEAR=2012
DGENRE=Country
TTITLE0=Got My Country On
TTITLE1=I'll Grow My Own
TTITLE2=Something That Wild
TTITLE3=Let There Be Cowgirls
TTITLE4=Dance Baby Dance
TTITLE5=When Will My Lover Come Around
TTITLE6=Southern Girl
TTITLE7=Probably Just Time
TTITLE8=Thank God She Left The Whiskey
TTITLE9=Now I Know What Mama Meant
TTITLE10=Just Enough
TTITLE11=Summer Again (Bonus Track)
EXTD=
EXTT0=
EXTT1=
EXTT2=
EXTT3=
EXTT4=
EXTT5=
EXTT6=
EXTT7=
EXTT8=
EXTT9=
EXTT10=
EXTT11=
PLAYORDER=
